<svg width="14" height="14" viewBox="0 0 14 14" fill="none" xmlns="http://www.w3.org/2000/svg">
<path fill-rule="evenodd" clip-rule="evenodd" d="M0.3125 12.6721V1.07387C0.3125 0.61997 0.682299 0.25 1.1371 0.25H11.9054C12.3602 0.25 12.73 0.61997 12.73 1.07387V6.26007C12.4761 6.05024 12.199 5.86691 11.9032 5.71561V2.73487H1.14151V11.845H5.77669C5.92792 12.1409 6.11116 12.4181 6.3209 12.6721H0.3125ZM5.28019 6.04847V3.5625H11.0744V6.04847H9.94401C11.9497 6.10681 13.5595 7.75355 13.5595 9.77418C13.5595 11.8317 11.8904 13.5015 9.8339 13.5015C7.77738 13.5015 6.10832 11.8317 6.10832 9.77418C6.10832 7.75355 7.71813 6.10681 9.72379 6.04847H5.28019ZM10.2465 5.21908V4.38969H6.1081V5.21908H10.2465ZM1.96558 5.21781V4.39062H4.45041V5.21781H1.96558ZM1.96558 8.53547V9.36266H4.45041V8.53547H1.96558ZM10.2467 10.1894V11.846H9.41995V10.1894H7.76413V9.36224H9.41995V7.70345H10.2467V9.36224H11.9048V10.1894H10.2467Z" fill="#898989"/>
</svg>
