<svg width="23" height="20" viewBox="0 0 13 17" fill="none" xmlns="http://www.w3.org/2000/svg">
<path fill-rule="evenodd" clip-rule="evenodd" d="M11.3742 16.88H1.48359C0.665507 16.88 0 16.2145 0 15.3964V1.48359C0 0.665507 0.665507 0 1.48359 0H7.9125V3.46172C7.9125 4.27981 8.57801 4.94531 9.39609 4.94531H12.8578V15.3964C12.8578 16.2145 12.1923 16.88 11.3742 16.88ZM9.39609 7.94547H4.45078C4.17744 7.94547 3.95625 8.16666 3.95625 8.44C3.95625 8.71334 4.17744 8.93453 4.45078 8.93453H9.39609C9.66944 8.93453 9.89063 8.71334 9.89063 8.44C9.89063 8.16666 9.66944 7.94547 9.39609 7.94547ZM9.39609 9.92359H4.45078C4.17744 9.92359 3.95625 10.1448 3.95625 10.4181C3.95625 10.6915 4.17744 10.9127 4.45078 10.9127H9.39609C9.66944 10.9127 9.89063 10.6915 9.89063 10.4181C9.89063 10.1448 9.66944 9.92359 9.39609 9.92359ZM9.39609 11.9017H4.45078C4.17744 11.9017 3.95625 12.1229 3.95625 12.3962C3.95625 12.6696 4.17744 12.8908 4.45078 12.8908H9.39609C9.66944 12.8908 9.89063 12.6696 9.89063 12.3962C9.89063 12.1229 9.66944 11.9017 9.39609 11.9017ZM2.96719 8.44C2.96719 8.16689 2.74577 7.94547 2.47266 7.94547C2.19954 7.94547 1.97813 8.16689 1.97813 8.44C1.97813 8.71311 2.19954 8.93453 2.47266 8.93453C2.74577 8.93453 2.96719 8.71311 2.96719 8.44ZM2.96719 10.4181C2.96719 10.145 2.74577 9.92359 2.47266 9.92359C2.19954 9.92359 1.97813 10.145 1.97813 10.4181C1.97813 10.6912 2.19954 10.9127 2.47266 10.9127C2.74577 10.9127 2.96719 10.6912 2.96719 10.4181ZM2.96719 12.3962C2.96719 12.1231 2.74577 11.9017 2.47266 11.9017C2.19954 11.9017 1.97813 12.1231 1.97813 12.3962C1.97813 12.6694 2.19954 12.8908 2.47266 12.8908C2.74577 12.8908 2.96719 12.6694 2.96719 12.3962ZM12.5681 3.95661H9.39609C9.12324 3.95661 8.90156 3.73493 8.90156 3.46208V0.290125L12.5681 3.95661Z" fill="#898989"/>
</svg>
