<svg width="18" height="19" viewBox="0 0 18 19" fill="none" xmlns="http://www.w3.org/2000/svg">
<path fill-rule="evenodd" clip-rule="evenodd" d="M15.7326 13.5891V14.3284C15.7326 15.1416 15.0673 15.807 14.2541 15.807H3.9041C3.0835 15.807 2.42554 15.1416 2.42554 14.3284V3.97844C2.42554 3.16523 3.0835 2.49988 3.9041 2.49988H14.2541C15.0673 2.49988 15.7326 3.16523 15.7326 3.97844V4.71773H9.07909C8.25848 4.71773 7.60052 5.38308 7.60052 6.19629V12.1106C7.60052 12.9238 8.25848 13.5891 9.07909 13.5891H15.7326ZM9.07908 12.1106H16.4719V6.19631H9.07908V12.1106ZM12.0362 10.2624C11.4226 10.2624 10.9273 9.76704 10.9273 9.15344C10.9273 8.53983 11.4226 8.04451 12.0362 8.04451C12.6498 8.04451 13.1451 8.53983 13.1451 9.15344C13.1451 9.76704 12.6498 10.2624 12.0362 10.2624Z" fill="#F9837C"/>
</svg>
