<svg width="17" height="17" viewBox="0 0 17 17" fill="none" xmlns="http://www.w3.org/2000/svg">
<path fill-rule="evenodd" clip-rule="evenodd" d="M10.0293 10.5238C12.9307 10.5238 15.2912 8.16335 15.2912 5.26191C15.2912 2.36048 12.9307 0 10.0293 0C7.12785 0 4.76737 2.36048 4.76737 5.26191C4.76737 8.16335 7.12785 10.5238 10.0293 10.5238ZM12.113 7.38076C12.113 7.65388 11.8915 7.8753 11.6184 7.8753C11.3453 7.8753 11.1239 7.65388 11.1239 7.38076V6.85104C11.1239 6.57792 11.3453 6.3565 11.6184 6.3565C11.8915 6.3565 12.113 6.57792 12.113 6.85104V7.38076ZM11.2228 2.84635C11.3867 2.62789 11.6966 2.58358 11.9151 2.74744C12.1336 2.91133 12.1779 3.22131 12.014 3.4398L8.8358 7.67748C8.66656 7.90313 8.35507 7.93514 8.14344 7.77639C7.92495 7.6125 7.88064 7.30252 8.04453 7.08403L11.2228 2.84635ZM7.94562 3.14307C7.94562 2.86995 8.16705 2.64853 8.44016 2.64853C8.71328 2.64853 8.9347 2.86995 8.9347 3.14307V3.67279C8.9347 3.94591 8.71328 4.16733 8.44016 4.16733C8.16705 4.16733 7.94562 3.94591 7.94562 3.67279V3.14307ZM15.0606 11.8686L11.9468 14.6363C11.8563 14.7167 11.7394 14.7612 11.6182 14.7612H8.98366C8.71737 14.7612 8.48823 14.5565 8.47571 14.2906C8.46232 14.0066 8.68862 13.7721 8.96969 13.7721H11.0132C11.3478 13.7721 11.6187 13.5003 11.6177 13.1658C11.596 12.3338 10.9235 11.6533 10.0385 11.6533H8.50933L7.92324 11.4858C7.05581 11.238 6.10798 11.4144 5.38769 11.9577C4.83407 12.3753 4.45192 12.9818 4.30475 13.6501L3.10769 13.3508V16.88H11.7999C12.498 16.88 13.1543 16.6082 13.6479 16.1146L16.7353 13.0272C16.8275 12.935 16.8799 12.8099 16.8801 12.6795C16.8822 11.734 15.7607 11.2463 15.0606 11.8686ZM0.494541 12.1828H1.6243C1.89742 12.1828 2.11884 12.4043 2.11884 12.6774V16.8799H0.494541C0.221422 16.8799 0 16.6585 0 16.3854V12.6774C0 12.4043 0.221422 12.1828 0.494541 12.1828Z" fill="#898989"/>
</svg>
