<svg width="15" height="15" viewBox="0 0 15 15" fill="none" xmlns="http://www.w3.org/2000/svg">
<path fill-rule="evenodd" clip-rule="evenodd" d="M7.57534 0.851562C9.19274 0.851562 10.5039 2.16275 10.5039 3.78015C10.5039 5.39758 9.19274 6.70874 7.57534 6.70874C5.95791 6.70874 4.64675 5.39758 4.64675 3.78015C4.64672 2.16275 5.95791 0.851562 7.57534 0.851562ZM12.6981 10.34C11.7748 10.34 11.0266 11.0882 11.0266 12.0115C11.0266 12.3909 11.153 12.7406 11.3659 13.0211C11.613 12.5363 12.1168 12.2041 12.6981 12.2041C13.2796 12.2041 13.7834 12.5362 14.0304 13.021C14.2432 12.7406 14.3696 12.3908 14.3696 12.0115C14.3696 11.0882 13.6214 10.34 12.6981 10.34ZM2.45259 10.5937C2.86992 10.5937 3.2082 10.932 3.2082 11.3493C3.2082 11.7666 2.86992 12.1049 2.45259 12.1049C2.0353 12.1049 1.69699 11.7666 1.69699 11.3493C1.69699 10.932 2.03527 10.5937 2.45259 10.5937ZM7.57534 10.5937C7.99266 10.5937 8.33094 10.932 8.33094 11.3493C8.33094 11.7666 7.99266 12.1049 7.57534 12.1049C7.15804 12.1049 6.81973 11.7666 6.81973 11.3493C6.81973 10.932 7.15804 10.5937 7.57534 10.5937ZM12.6981 10.5937C13.1154 10.5937 13.4537 10.932 13.4537 11.3493C13.4537 11.7666 13.1154 12.1049 12.6981 12.1049C12.2808 12.1049 11.9425 11.7666 11.9425 11.3493C11.9425 10.932 12.2808 10.5937 12.6981 10.5937ZM2.45259 12.2041C3.03404 12.2041 3.53781 12.5362 3.78484 13.021C3.99769 12.7406 4.12408 12.3908 4.12408 12.0115C4.12408 11.0882 3.37586 10.34 2.45259 10.34C1.5293 10.34 0.781103 11.0882 0.781103 12.0115C0.781103 12.3909 0.907501 12.7406 1.12038 13.0211C1.36749 12.5363 1.87127 12.2041 2.45259 12.2041ZM7.57534 12.2041C8.15678 12.2041 8.66055 12.5362 8.90758 13.021C9.12043 12.7406 9.24683 12.3908 9.24683 12.0115C9.24683 11.0882 8.4986 10.34 7.57534 10.34C6.65204 10.34 5.90385 11.0882 5.90385 12.0115C5.90385 12.3909 6.03024 12.7406 6.24312 13.0211C6.49024 12.5363 6.99401 12.2041 7.57534 12.2041ZM12.6981 9.87143C13.88 9.87143 14.8382 10.8296 14.8382 12.0115C14.8382 13.1934 13.88 14.1516 12.6981 14.1516C11.5162 14.1516 10.558 13.1934 10.558 12.0115C10.558 10.8296 11.5162 9.87143 12.6981 9.87143ZM7.57534 9.87143C6.39342 9.87143 5.43527 10.8296 5.43527 12.0115C5.43527 13.1934 6.39342 14.1516 7.57534 14.1516C8.75725 14.1516 9.7154 13.1934 9.7154 12.0115C9.7154 10.8296 8.75725 9.87143 7.57534 9.87143ZM2.45256 9.87143C1.27065 9.87143 0.3125 10.8296 0.3125 12.0115C0.3125 13.1934 1.27065 14.1516 2.45256 14.1516C3.63448 14.1516 4.59263 13.1934 4.59263 12.0115C4.59263 10.8296 3.63451 9.87143 2.45256 9.87143ZM7.80962 7.16911V8.17912H12.6981C12.8275 8.17912 12.9324 8.28402 12.9324 8.41341V9.41346C12.8552 9.40658 12.7771 9.40286 12.6981 9.40286C12.6192 9.40286 12.541 9.40637 12.4638 9.41326V8.64769H7.80962V9.41326C7.73245 9.40637 7.65432 9.40286 7.57534 9.40286C7.49638 9.40286 7.41822 9.40637 7.34105 9.41326V8.64769H2.68685V9.41326C2.60968 9.4064 2.53155 9.40286 2.45259 9.40286C2.37361 9.40286 2.2955 9.40658 2.21828 9.41346V8.41341C2.21828 8.28402 2.32318 8.17912 2.45256 8.17912H7.34105V7.16911C7.41848 7.17438 7.49656 7.17731 7.57534 7.17731C7.65409 7.17731 7.73216 7.17438 7.80962 7.16911ZM6.73492 5.3451L8.81029 2.4547C8.88201 2.35504 8.85937 2.21614 8.75974 2.14442C8.66011 2.0727 8.52118 2.09533 8.44946 2.19496L6.37409 5.08536C6.30237 5.18502 6.32501 5.32392 6.42464 5.39565C6.52427 5.46737 6.6632 5.44473 6.73492 5.3451ZM7.20449 2.11326C6.89664 1.80564 6.39834 1.80684 6.09098 2.11446C5.78333 2.42231 5.78459 2.92061 6.09215 3.22799C6.40001 3.53564 6.89831 3.53438 7.20569 3.22679C7.51331 2.91894 7.51208 2.42064 7.20449 2.11326ZM6.42226 2.44392C6.29762 2.56862 6.2966 2.77175 6.42162 2.89668C6.54635 3.02132 6.74945 3.02232 6.87438 2.89733C6.99902 2.7726 7.00002 2.5695 6.87502 2.44457C6.75029 2.31993 6.5472 2.31893 6.42226 2.44392ZM9.05849 4.33233C8.75064 4.02472 8.25234 4.02595 7.94498 4.33353C7.63733 4.64142 7.63859 5.13969 7.94615 5.44707C8.25401 5.75472 8.75233 5.75343 9.05969 5.44587C9.3652 5.14013 9.364 4.63758 9.05849 4.33233ZM8.72902 4.66362C8.60432 4.539 8.40117 4.53798 8.27626 4.66297C8.15165 4.78767 8.15063 4.99083 8.27562 5.11573C8.40032 5.24034 8.60347 5.24137 8.72838 5.11638C8.85284 4.99185 8.85381 4.78832 8.72902 4.66362Z" fill="#898989"/>
</svg>
