<svg width="19" height="19" viewBox="0 0 19 19" fill="none" xmlns="http://www.w3.org/2000/svg">
<path fill-rule="evenodd" clip-rule="evenodd" d="M15.7209 4.71769H12.7638V3.23913L11.2852 1.76056H8.32806L6.8495 3.23913V4.71769H3.89236C3.07176 4.71769 2.42119 5.37565 2.42119 6.19626L2.4138 14.3284C2.4138 15.149 3.07176 15.8069 3.89236 15.8069H15.7209C16.5415 15.8069 17.1995 15.149 17.1995 14.3284V6.19626C17.1995 5.37565 16.5415 4.71769 15.7209 4.71769ZM8.3281 3.23912H11.2852V4.71769H8.3281V3.23912ZM8.69769 13.2194L6.1102 10.632L7.15259 9.58956L8.69769 11.1347L12.5272 7.30518L13.5696 8.34757L8.69769 13.2194Z" fill="#775DA6"/>
</svg>
