<svg width="122" height="123" viewBox="0 0 122 123" fill="none" xmlns="http://www.w3.org/2000/svg">
<path fill-rule="evenodd" clip-rule="evenodd" d="M0.125 61.125C0.125 44.9634 6.54518 29.4637 17.9732 18.0357C29.4012 6.60768 44.9009 0.1875 61.0625 0.1875C77.2241 0.1875 92.7238 6.60768 104.152 18.0357C115.58 29.4637 122 44.9634 122 61.125C122 77.2866 115.58 92.7863 104.152 104.214C92.7238 115.642 77.2241 122.062 61.0625 122.062C44.9009 122.062 29.4012 115.642 17.9732 104.214C6.54518 92.7863 0.125 77.2866 0.125 61.125ZM57.585 87.2063L92.6688 43.3475L86.3312 38.2775L56.415 75.6606L35.225 58.005L30.025 64.245L57.585 87.2063Z" fill="#048519"/>
</svg>
