<svg width="19" height="19" viewBox="0 0 19 19" fill="none" xmlns="http://www.w3.org/2000/svg">
<path d="M1.375 0.3125V5.9375C1.375 6.60054 1.63839 7.23643 2.10723 7.70527C2.57607 8.17411 3.21196 8.4375 3.875 8.4375C4.53804 8.4375 5.17393 8.17411 5.64277 7.70527C6.11161 7.23643 6.375 6.60054 6.375 5.9375V2.1875C6.375 1.85598 6.2433 1.53804 6.00888 1.30362C5.77446 1.0692 5.45652 0.9375 5.125 0.9375C4.79348 0.9375 4.47554 1.0692 4.24112 1.30362C4.0067 1.53804 3.875 1.85598 3.875 2.1875V6.5625M8.25 0.9375H16.375C16.7065 0.9375 17.0245 1.0692 17.2589 1.30362C17.4933 1.53804 17.625 1.85598 17.625 2.1875V17.1875C17.625 17.519 17.4933 17.837 17.2589 18.0714C17.0245 18.3058 16.7065 18.4375 16.375 18.4375H3.875C3.54348 18.4375 3.22554 18.3058 2.99112 18.0714C2.7567 17.837 2.625 17.519 2.625 17.1875V10.3125M14.5 5.9375H9.5M14.5 9.6875H9.5M14.5 13.4375H5.75" stroke="black" stroke-width="0.9375"/>
</svg>
