<svg width="18" height="18" viewBox="0 0 18 18" fill="none" xmlns="http://www.w3.org/2000/svg">
<path fill-rule="evenodd" clip-rule="evenodd" d="M4.5 1.5C3.90326 1.5 3.33097 1.73705 2.90901 2.15901C2.48705 2.58097 2.25 3.15326 2.25 3.75V14.25C2.25 14.8467 2.48705 15.419 2.90901 15.841C3.33097 16.2629 3.90326 16.5 4.5 16.5H9C9.59674 16.5 10.169 16.2629 10.591 15.841C11.0129 15.419 11.25 14.8467 11.25 14.25V3.75C11.25 3.15326 11.0129 2.58097 10.591 2.15901C10.169 1.73705 9.59674 1.5 9 1.5H4.5ZM12.2197 5.46975C12.3604 5.32915 12.5511 5.25016 12.75 5.25016C12.9489 5.25016 13.1396 5.32915 13.2802 5.46975L16.2802 8.46975C16.4209 8.6104 16.4998 8.80113 16.4998 9C16.4998 9.19887 16.4209 9.3896 16.2802 9.53025L13.2802 12.5302C13.1388 12.6669 12.9493 12.7425 12.7527 12.7408C12.5561 12.739 12.3679 12.6602 12.2289 12.5211C12.0898 12.3821 12.011 12.1939 12.0092 11.9973C12.0075 11.8007 12.0831 11.6112 12.2197 11.4697L13.9395 9.75H7.5C7.30109 9.75 7.11032 9.67098 6.96967 9.53033C6.82902 9.38968 6.75 9.19891 6.75 9C6.75 8.80109 6.82902 8.61032 6.96967 8.46967C7.11032 8.32902 7.30109 8.25 7.5 8.25H13.9395L12.2197 6.53025C12.0791 6.3896 12.0002 6.19887 12.0002 6C12.0002 5.80113 12.0791 5.6104 12.2197 5.46975Z" fill="#898989"/>
</svg>
