<svg width="14" height="14" viewBox="0 0 14 14" fill="none" xmlns="http://www.w3.org/2000/svg">
<path fill-rule="evenodd" clip-rule="evenodd" d="M4 3.25C4 2.45435 4.31607 1.69129 4.87868 1.12868C5.44129 0.56607 6.20435 0.25 7 0.25C7.79565 0.25 8.55871 0.56607 9.12132 1.12868C9.68393 1.69129 10 2.45435 10 3.25C10 4.04565 9.68393 4.80871 9.12132 5.37132C8.55871 5.93393 7.79565 6.25 7 6.25C6.20435 6.25 5.44129 5.93393 4.87868 5.37132C4.31607 4.80871 4 4.04565 4 3.25ZM4 7.75C3.00544 7.75 2.05161 8.14509 1.34835 8.84835C0.645088 9.55161 0.25 10.5054 0.25 11.5C0.25 12.0967 0.487053 12.669 0.90901 13.091C1.33097 13.5129 1.90326 13.75 2.5 13.75H11.5C12.0967 13.75 12.669 13.5129 13.091 13.091C13.5129 12.669 13.75 12.0967 13.75 11.5C13.75 10.5054 13.3549 9.55161 12.6517 8.84835C11.9484 8.14509 10.9946 7.75 10 7.75H4Z" fill="#898989"/>
</svg>
