<svg width="21" height="21" viewBox="0 0 21 21" fill="none" xmlns="http://www.w3.org/2000/svg">
<path d="M14.4408 8.25191C14.4408 9.34618 14.0061 10.3956 13.2324 11.1694C12.4586 11.9432 11.4092 12.3779 10.3149 12.3779C9.22062 12.3779 8.17116 11.9432 7.3974 11.1694C6.62363 10.3956 6.18893 9.34618 6.18893 8.25191C6.18893 7.15764 6.62363 6.10818 7.3974 5.33442C8.17116 4.56065 9.22062 4.12595 10.3149 4.12595C11.4092 4.12595 12.4586 4.56065 13.2324 5.33442C14.0061 6.10818 14.4408 7.15764 14.4408 8.25191Z" fill="#898989"/>
<path fill-rule="evenodd" clip-rule="evenodd" d="M9.89404 20.6215C4.39259 20.4008 0 15.8705 0 10.3149C0 4.61797 4.61797 0 10.3149 0C16.0118 0 20.6298 4.61797 20.6298 10.3149C20.6298 16.0118 16.0118 20.6298 10.3149 20.6298C10.2678 20.6301 10.2207 20.6301 10.1736 20.6298C10.0802 20.6298 9.98687 20.6267 9.89404 20.6215ZM3.69582 16.8236C3.6187 16.6021 3.59245 16.3661 3.61902 16.1331C3.64559 15.9001 3.7243 15.6761 3.8493 15.4776C3.9743 15.2792 4.14239 15.1115 4.34108 14.9869C4.53978 14.8623 4.76398 14.7841 4.99705 14.758C9.01779 14.3129 11.6367 14.3532 15.6379 14.7673C15.8713 14.7916 16.096 14.8688 16.295 14.9931C16.494 15.1174 16.6621 15.2855 16.7863 15.4846C16.9106 15.6836 16.9877 15.9084 17.012 16.1418C17.0362 16.3751 17.0069 16.611 16.9262 16.8313C18.641 15.0963 19.6014 12.7543 19.5983 10.3149C19.5983 5.18787 15.4419 1.03149 10.3149 1.03149C5.18787 1.03149 1.03149 5.18787 1.03149 10.3149C1.03149 12.8503 2.04802 15.1484 3.69582 16.8236Z" fill="#898989"/>
</svg>
