<svg width="33" height="33" viewBox="0 0 33 33" fill="none" xmlns="http://www.w3.org/2000/svg">
<path d="M4.5 22.875H2.5V4.875C2.50053 4.34473 2.71141 3.83633 3.08637 3.46137C3.46133 3.08641 3.96973 2.87553 4.5 2.875H22.5V4.875H4.5V22.875ZM21.5 17.875C22.0933 17.875 22.6734 17.6991 23.1667 17.3694C23.6601 17.0398 24.0446 16.5712 24.2716 16.0231C24.4987 15.4749 24.5581 14.8717 24.4424 14.2897C24.3266 13.7078 24.0409 13.1732 23.6213 12.7537C23.2018 12.3341 22.6672 12.0484 22.0853 11.9326C21.5033 11.8169 20.9001 11.8763 20.3519 12.1034C19.8038 12.3304 19.3352 12.7149 19.0056 13.2083C18.6759 13.7016 18.5 14.2817 18.5 14.875C18.5008 15.6704 18.8171 16.433 19.3796 16.9954C19.942 17.5579 20.7046 17.8742 21.5 17.875ZM21.5 13.875C21.6978 13.875 21.8911 13.9336 22.0556 14.0435C22.22 14.1534 22.3482 14.3096 22.4239 14.4923C22.4996 14.675 22.5194 14.8761 22.4808 15.0701C22.4422 15.2641 22.347 15.4423 22.2071 15.5821C22.0673 15.722 21.8891 15.8172 21.6951 15.8558C21.5011 15.8944 21.3 15.8746 21.1173 15.7989C20.9346 15.7232 20.7784 15.595 20.6685 15.4306C20.5586 15.2661 20.5 15.0728 20.5 14.875C20.5 14.6098 20.6054 14.3554 20.7929 14.1679C20.9804 13.9804 21.2348 13.875 21.5 13.875Z" fill="#898989"/>
<path d="M28.5 7.875H9.5C8.96981 7.87579 8.46156 8.08676 8.08666 8.46166C7.71176 8.83656 7.50079 9.34481 7.5 9.875V28.875C7.50079 29.4052 7.71176 29.9134 8.08666 30.2883C8.46156 30.6632 8.96981 30.8742 9.5 30.875H28.5C29.0302 30.8742 29.5384 30.6632 29.9133 30.2883C30.2882 29.9134 30.4992 29.4052 30.5 28.875V9.875C30.4992 9.34481 30.2882 8.83656 29.9133 8.46166C29.5384 8.08676 29.0302 7.87579 28.5 7.875ZM28.5 28.875H9.5V22.875L13.5 18.878L19.086 24.464C19.4611 24.8389 19.9697 25.0496 20.5 25.0496C21.0303 25.0496 21.5389 24.8389 21.914 24.464L23.5 22.878L28.5 27.875V28.875ZM28.5 25.047L24.914 21.461C24.5389 21.0861 24.0303 20.8754 23.5 20.8754C22.9697 20.8754 22.4611 21.0861 22.086 21.461L20.5 23.047L14.914 17.461C14.5389 17.0861 14.0303 16.8754 13.5 16.8754C12.9697 16.8754 12.4611 17.0861 12.086 17.461L9.5 20.047V9.875H28.5V25.047Z" fill="#898989"/>
</svg>
