<svg width="13" height="17" viewBox="0 0 13 17" fill="none" xmlns="http://www.w3.org/2000/svg">
<path d="M11.5197 14.862H3.73641C4.33986 14.0297 4.64269 13.0172 4.59526 11.9902V10.031H6.90878C7.05115 10.031 7.18768 9.97443 7.28835 9.87376C7.38901 9.77309 7.44556 9.63656 7.44556 9.4942C7.44556 9.35184 7.38901 9.2153 7.28835 9.11464C7.18768 9.01397 7.05115 8.95742 6.90878 8.95742H4.59526V4.82958C4.5903 4.45841 4.65885 4.08992 4.79697 3.74537C4.93509 3.40082 5.14005 3.08702 5.40002 2.82205C5.66 2.55709 5.96985 2.34621 6.31171 2.20156C6.65357 2.05691 7.02069 1.98137 7.39189 1.97927C7.77674 1.98513 8.15621 2.07067 8.50636 2.2305C8.8565 2.39033 9.16973 2.62098 9.42628 2.9079C9.52238 3.01325 9.65639 3.07611 9.79883 3.08266C9.94127 3.0892 10.0805 3.03889 10.1858 2.9428C10.2912 2.8467 10.354 2.71269 10.3606 2.57025C10.3671 2.42781 10.3168 2.2886 10.2207 2.18325C9.69267 1.60954 9.00323 1.20923 8.24321 1.03504C7.48319 0.86085 6.68823 0.92095 5.96304 1.20743C5.23784 1.4939 4.61642 1.99331 4.18063 2.63989C3.74484 3.28647 3.51511 4.04988 3.5217 4.82958V8.95742H1.22428C1.08192 8.95742 0.945386 9.01397 0.84472 9.11464C0.744054 9.2153 0.6875 9.35184 0.6875 9.4942C0.6875 9.63656 0.744054 9.77309 0.84472 9.87376C0.945386 9.97443 1.08192 10.031 1.22428 10.031H3.5217V11.9902C3.5217 14.5292 1.97577 14.862 1.91136 14.862C1.769 14.8741 1.63727 14.9423 1.54516 15.0515C1.45305 15.1607 1.4081 15.302 1.42021 15.4444C1.43231 15.5868 1.50046 15.7185 1.60969 15.8106C1.71891 15.9027 1.86025 15.9477 2.00261 15.9356H11.5197C11.6621 15.9356 11.7986 15.879 11.8993 15.7783C12 15.6777 12.0565 15.5411 12.0565 15.3988C12.0565 15.2564 12 15.1199 11.8993 15.0192C11.7986 14.9186 11.6621 14.862 11.5197 14.862Z" fill="black" stroke="black" stroke-width="0.46875"/>
</svg>
