<svg width="12" height="16" viewBox="0 0 12 16" fill="none" xmlns="http://www.w3.org/2000/svg">
<path d="M10.3977 3.8125C10.4193 3.8125 10.4404 3.80611 10.4583 3.79414C10.4762 3.78217 10.4901 3.76516 10.4984 3.74525C10.5066 3.72535 10.5088 3.70345 10.5046 3.68232C10.5004 3.66119 10.49 3.64178 10.4748 3.62654L7.57879 0.730568C7.56356 0.715324 7.54416 0.70494 7.52302 0.700731C7.50189 0.696523 7.47998 0.698678 7.46008 0.706924C7.44017 0.715171 7.42316 0.729138 7.41119 0.747057C7.39923 0.764977 7.39285 0.786043 7.39286 0.807591V3.26786C7.39286 3.4123 7.45024 3.55084 7.55238 3.65298C7.65452 3.75512 7.79305 3.8125 7.9375 3.8125H10.3977Z" fill="#898989"/>
<path d="M10.6607 4.90179H7.9375C7.50416 4.90179 7.08856 4.72964 6.78214 4.42322C6.47572 4.1168 6.30357 3.7012 6.30357 3.26786V0.546043C6.30378 0.474639 6.28991 0.403896 6.26274 0.337861C6.23558 0.271826 6.19566 0.211796 6.14527 0.161207C6.09488 0.110618 6.03501 0.070464 5.96908 0.0430422C5.90315 0.0156204 5.83246 0.00146956 5.76106 0.00139969C4.48532 0.000735221 1.40179 4.81876e-10 1.40179 4.81876e-10C1.25874 -4.29116e-06 1.11709 0.0281679 0.984929 0.0829081C0.852769 0.137648 0.732685 0.217884 0.631535 0.319035C0.530384 0.420185 0.450148 0.540269 0.395408 0.672429C0.340668 0.804589 0.312496 0.946237 0.3125 1.08929V14.1607C0.3125 14.4496 0.427264 14.7267 0.631544 14.931C0.835825 15.1352 1.11289 15.25 1.40179 15.25H10.1161C10.405 15.25 10.682 15.1352 10.8863 14.931C11.0906 14.7267 11.2054 14.4496 11.2054 14.1607V5.44643C11.2054 5.30198 11.148 5.16345 11.0458 5.06131C10.9437 4.95917 10.8052 4.90179 10.6607 4.90179ZM9.00712 10.5372C8.59927 10.9957 8.09897 11.3626 7.53913 11.6139C6.97929 11.8652 6.37259 11.9951 5.75894 11.9951C5.14529 11.9951 4.53859 11.8652 3.97875 11.6139C3.4189 11.3626 2.91861 10.9957 2.51076 10.5372C2.33084 10.3352 2.23143 10.0741 2.23143 9.80356C2.23143 9.53304 2.33084 9.27196 2.51076 9.06995C2.91861 8.61145 3.41891 8.24449 3.97875 7.9932C4.53859 7.74192 5.14529 7.61201 5.75894 7.61201C6.37259 7.61201 6.97929 7.74192 7.53913 7.9932C8.09897 8.24449 8.59927 8.61145 9.00712 9.06995C9.18704 9.27196 9.28646 9.53304 9.28646 9.80356C9.28646 10.0741 9.18704 10.3352 9.00712 10.5372Z" fill="#898989"/>
<path d="M6.69302 10.0661C6.48058 10.0667 6.27509 9.99043 6.11442 9.85145C5.95375 9.71247 5.84873 9.5201 5.8187 9.30979C5.78867 9.09948 5.83567 8.88541 5.95102 8.70702C6.06637 8.52862 6.24232 8.39793 6.44643 8.33903C6.12615 8.19091 5.76648 8.15066 5.42138 8.2243C5.07629 8.29795 4.76438 8.48152 4.53247 8.74747C4.30056 9.01343 4.16115 9.34742 4.13516 9.69932C4.10917 10.0512 4.19801 10.4021 4.38834 10.6992C4.57866 10.9963 4.86022 11.2237 5.19075 11.3473C5.52129 11.4708 5.88297 11.4838 6.22153 11.3844C6.56009 11.2849 6.85726 11.0784 7.06846 10.7957C7.27965 10.513 7.39348 10.1694 7.39286 9.81657C7.39286 9.78589 7.38548 9.75727 7.38382 9.72702C7.30198 9.83228 7.19724 9.91752 7.07755 9.97627C6.95786 10.035 6.82635 10.0657 6.69302 10.0661Z" fill="#898989"/>
</svg>
