<svg width="12" height="12" viewBox="0 0 12 12" fill="none" xmlns="http://www.w3.org/2000/svg">
<path fill-rule="evenodd" clip-rule="evenodd" d="M5.68556 0.847656C4.17746 0.847656 2.95491 2.07022 2.95491 3.57832C2.95491 5.08643 4.17746 6.30899 5.68556 6.30899C7.19367 6.30899 8.41623 5.08643 8.41623 3.57832C8.41623 2.07022 7.19367 0.847656 5.68556 0.847656ZM6.20448 7.20538C4.35002 7.05017 2.46156 7.42201 0.770092 8.32084C0.4885 8.47048 0.3125 8.76331 0.3125 9.0822V10.9921C0.3125 11.4948 0.720019 11.9023 1.22272 11.9023H6.17665C5.29248 11.5104 4.55694 10.8453 4.07704 10.0157C3.91394 9.73377 3.91394 9.38611 4.07704 9.10415C4.56197 8.26586 5.30794 7.59563 6.20448 7.20538ZM7.98551 8.64956C7.48281 8.64956 7.07529 9.05708 7.07529 9.55978C7.07529 10.0625 7.48281 10.47 7.98551 10.47C8.48821 10.47 8.89573 10.0625 8.89573 9.55978C8.89573 9.05708 8.48821 8.64956 7.98551 8.64956ZM8.0187 10.9914C6.89835 10.9914 5.90995 10.4249 5.32501 9.56108C5.90995 8.69731 6.89835 8.13073 8.0187 8.13073C9.13905 8.13073 10.1275 8.69731 10.7124 9.56108C10.1275 10.4249 9.13905 10.9914 8.0187 10.9914ZM8.0187 7.35054C6.52619 7.35054 5.22364 8.16189 4.52724 9.36577C4.45734 9.4866 4.45734 9.63556 4.52724 9.75639C5.22364 10.9603 6.52619 11.7716 8.0187 11.7716C9.51125 11.7716 10.8138 10.9603 11.5102 9.75639C11.5801 9.63556 11.5801 9.4866 11.5102 9.36577C10.8138 8.16189 9.51125 7.35054 8.0187 7.35054Z" fill="#898989"/>
</svg>
